<svg id="Layer_13" data-name="Layer 13" xmlns="http://www.w3.org/2000/svg" viewBox="0 0 272.92 50.04"><defs><style>.cls-1{fill:#0071ba;}</style></defs><title>philips</title><path class="cls-1" d="M41.26,143.47c0,6.23-3,10.45-10.65,10.45H28.2V134.07c.86,0,1.66,0,2.41,0,7.22,0,10.65,3.41,10.65,9.44m-7.84,19.09c13.66,0,22.29-7,22.29-19.29,0-13.47-9.24-18.29-24.3-18.29a165.82,165.82,0,0,0-17.87,1v48H28.2V162.56Zm196.4-19.09c0,6.23-3,10.45-10.64,10.45h-2.4V134.07c.85,0,1.65,0,2.4,0,7.23,0,10.64,3.41,10.64,9.44M222,162.56c13.65,0,22.28-7,22.28-19.29,0-13.47-9.23-18.29-24.3-18.29a165.82,165.82,0,0,0-17.87,1v48h14.67V162.56Zm41.36-24.32c0-2.61,2.61-3.82,6.83-3.82a36.74,36.74,0,0,1,13.05,2.42L282,126.39A57,57,0,0,0,268.58,125c-11.85,0-19.88,4.67-19.88,14.47,0,16.88,22.9,13.47,22.9,21.3,0,3-2.21,4.62-7.64,4.62a43.81,43.81,0,0,1-16.66-3.81l1.61,11.05A48.4,48.4,0,0,0,264.17,175c12.25,0,22.29-4,22.29-16.08,0-16.07-23.1-13.06-23.1-20.7M191.07,126H176.41v48h14.66Zm-59.45,0H117v48h14.66Zm25.51,38.39V126H142.47v48H169l2.2-9.65Zm-51-38.39H91.46v19.1H76.2V126H61.53v48H76.2v-18.9H91.46V174h14.66Z" transform="translate(-13.54 -124.98)"/></svg>